<svg width="512" height="512" viewBox="0 0 512 512" fill="none" xmlns="http://www.w3.org/2000/svg" role="img" aria-labelledby="title desc">
  <title id="title">ivvo signal mark</title>
  <desc id="desc">A geometric IVVO monogram built from four product signal modules.</desc>
  <defs>
    <linearGradient id="bg" x1="58" y1="40" x2="454" y2="472" gradientUnits="userSpaceOnUse">
      <stop stop-color="#0B1017"/>
      <stop offset="0.58" stop-color="#101827"/>
      <stop offset="1" stop-color="#071815"/>
    </linearGradient>
    <linearGradient id="teal" x1="122" y1="132" x2="262" y2="370" gradientUnits="userSpaceOnUse">
      <stop stop-color="#5EEAD4"/>
      <stop offset="1" stop-color="#0F766E"/>
    </linearGradient>
    <linearGradient id="blue" x1="218" y1="116" x2="382" y2="378" gradientUnits="userSpaceOnUse">
      <stop stop-color="#93C5FD"/>
      <stop offset="1" stop-color="#2563EB"/>
    </linearGradient>
    <linearGradient id="ember" x1="246" y1="104" x2="420" y2="382" gradientUnits="userSpaceOnUse">
      <stop stop-color="#FDBA74"/>
      <stop offset="1" stop-color="#F97316"/>
    </linearGradient>
    <filter id="glow" x="70" y="76" width="392" height="360" filterUnits="userSpaceOnUse" color-interpolation-filters="sRGB">
      <feFlood flood-opacity="0" result="BackgroundImageFix"/>
      <feColorMatrix in="SourceAlpha" type="matrix" values="0 0 0 0 0 0 0 0 0 0 0 0 0 0 0 0 0 0 127 0" result="hardAlpha"/>
      <feOffset dy="16"/>
      <feGaussianBlur stdDeviation="18"/>
      <feComposite in2="hardAlpha" operator="out"/>
      <feColorMatrix type="matrix" values="0 0 0 0 0.078 0 0 0 0 0.768 0 0 0 0 0.686 0 0 0 0.28 0"/>
      <feBlend mode="normal" in2="BackgroundImageFix" result="drop"/>
      <feBlend mode="normal" in="SourceGraphic" in2="drop" result="shape"/>
    </filter>
  </defs>
  <rect x="28" y="28" width="456" height="456" rx="112" fill="url(#bg)"/>
  <path d="M96 356C148 286 208 326 256 252C304 178 364 214 416 142" stroke="#1F2937" stroke-width="2"/>
  <path d="M104 396H408" stroke="#263241" stroke-width="2"/>
  <g filter="url(#glow)">
    <path d="M118 138C118 130.268 124.268 124 132 124H166C173.732 124 180 130.268 180 138V374C180 381.732 173.732 388 166 388H132C124.268 388 118 381.732 118 374V138Z" fill="url(#teal)"/>
    <path d="M208 129.5C212.052 122.671 221.946 122.67 225.999 129.498L309.574 270.349C312.125 274.648 312.125 279.995 309.574 284.294L225.999 425.145C221.946 431.973 212.052 431.972 208 425.143L189.968 394.744C187.386 390.393 187.412 384.972 190.036 380.647L248.225 284.769C250.963 280.257 250.963 274.601 248.225 270.089L190.036 174.21C187.412 169.886 187.386 164.465 189.968 160.114L208 129.5Z" fill="url(#blue)"/>
    <path d="M286.001 129.498C290.054 122.67 299.948 122.671 304 129.5L322.032 160.114C324.614 164.465 324.588 169.886 321.964 174.21L263.775 270.089C261.037 274.601 261.037 280.257 263.775 284.769L321.964 380.647C324.588 384.972 324.614 390.393 322.032 394.744L304 425.143C299.948 431.972 290.054 431.973 286.001 425.145L202.426 284.294C199.875 279.995 199.875 274.648 202.426 270.349L286.001 129.498Z" fill="#ECFEFF" fill-opacity="0.92"/>
    <path d="M347 125C295.086 125 253 167.086 253 219C253 270.914 295.086 313 347 313C398.914 313 441 270.914 441 219C441 167.086 398.914 125 347 125ZM347 175C371.301 175 391 194.699 391 219C391 243.301 371.301 263 347 263C322.699 263 303 243.301 303 219C303 194.699 322.699 175 347 175Z" fill="url(#ember)"/>
    <circle cx="347" cy="219" r="17" fill="#0B1017"/>
  </g>
  <path d="M132 92H380" stroke="#5EEAD4" stroke-width="2" stroke-linecap="round" stroke-dasharray="2 14" opacity="0.5"/>
  <path d="M132 420H380" stroke="#FDBA74" stroke-width="2" stroke-linecap="round" stroke-dasharray="2 14" opacity="0.5"/>
</svg>
