<svg width="1280" height="420" viewBox="0 0 1280 420" fill="none" xmlns="http://www.w3.org/2000/svg" role="img" aria-labelledby="title desc">
  <title id="title">ivvo standard</title>
  <desc id="desc">A distinctive banner for Tomasz Tarłowski and ivvo, centered on the IVVO signal mark.</desc>
  <defs>
    <linearGradient id="sky" x1="0" y1="0" x2="1280" y2="420" gradientUnits="userSpaceOnUse">
      <stop stop-color="#080C12"/>
      <stop offset="0.48" stop-color="#101827"/>
      <stop offset="1" stop-color="#061A16"/>
    </linearGradient>
    <linearGradient id="teal" x1="152" y1="84" x2="356" y2="344" gradientUnits="userSpaceOnUse">
      <stop stop-color="#5EEAD4"/>
      <stop offset="1" stop-color="#0F766E"/>
    </linearGradient>
    <linearGradient id="blue" x1="246" y1="76" x2="438" y2="350" gradientUnits="userSpaceOnUse">
      <stop stop-color="#93C5FD"/>
      <stop offset="1" stop-color="#2563EB"/>
    </linearGradient>
    <linearGradient id="ember" x1="350" y1="80" x2="556" y2="350" gradientUnits="userSpaceOnUse">
      <stop stop-color="#FDBA74"/>
      <stop offset="1" stop-color="#F97316"/>
    </linearGradient>
    <filter id="soft" x="48" y="30" width="522" height="386" filterUnits="userSpaceOnUse" color-interpolation-filters="sRGB">
      <feFlood flood-opacity="0" result="BackgroundImageFix"/>
      <feColorMatrix in="SourceAlpha" type="matrix" values="0 0 0 0 0 0 0 0 0 0 0 0 0 0 0 0 0 0 127 0" result="hardAlpha"/>
      <feOffset dy="18"/>
      <feGaussianBlur stdDeviation="20"/>
      <feComposite in2="hardAlpha" operator="out"/>
      <feColorMatrix type="matrix" values="0 0 0 0 0.078 0 0 0 0 0.768 0 0 0 0 0.686 0 0 0 0.22 0"/>
      <feBlend mode="normal" in2="BackgroundImageFix" result="drop"/>
      <feBlend mode="normal" in="SourceGraphic" in2="drop" result="shape"/>
    </filter>
    <pattern id="grid" width="64" height="64" patternUnits="userSpaceOnUse">
      <path d="M64 0H0V64" stroke="#FFFFFF" stroke-opacity="0.055"/>
    </pattern>
  </defs>
  <rect width="1280" height="420" rx="34" fill="url(#sky)"/>
  <rect width="1280" height="420" rx="34" fill="url(#grid)"/>
  <path d="M0 300C132 238 232 282 360 218C500 148 622 74 798 112C946 144 1018 234 1168 202C1216 192 1250 174 1280 154V420H0V300Z" fill="#10231F"/>
  <path d="M0 348C166 292 292 326 440 264C560 214 660 172 820 190C960 206 1038 288 1184 256C1222 248 1254 234 1280 216V420H0V348Z" fill="#172033"/>
  <g opacity="0.45">
    <path d="M82 78H1198" stroke="#E5E7EB" stroke-opacity="0.18"/>
    <path d="M82 342H1198" stroke="#E5E7EB" stroke-opacity="0.18"/>
    <path d="M86 206C198 116 286 278 402 178C530 68 636 184 756 130C910 60 1002 256 1192 128" stroke="#5EEAD4" stroke-opacity="0.24" stroke-width="2"/>
    <path d="M90 252C224 188 288 324 438 244C556 181 648 270 760 220C912 152 1002 332 1194 222" stroke="#FDBA74" stroke-opacity="0.22" stroke-width="2"/>
  </g>
  <g transform="translate(92 56)" filter="url(#soft)">
    <rect width="324" height="308" rx="74" fill="#0B1017" stroke="#263241" stroke-width="2"/>
    <path d="M62 78C62 70.268 68.268 64 76 64H105C112.732 64 119 70.268 119 78V230C119 237.732 112.732 244 105 244H76C68.268 244 62 237.732 62 230V78Z" fill="url(#teal)"/>
    <path d="M140.268 67.213C144.282 60.51 153.99 60.51 158.004 67.213L221.488 173.215C224.159 177.676 224.159 183.25 221.488 187.711L158.004 293.713C153.99 300.416 144.282 300.416 140.268 293.713L125.423 268.924C122.819 264.575 122.845 259.143 125.491 254.82L164.762 190.663C167.59 186.044 167.59 180.241 164.762 175.622L125.491 111.465C122.845 107.142 122.819 101.71 125.423 97.361L140.268 67.213Z" fill="url(#blue)"/>
    <path d="M202.996 67.213C207.01 60.51 216.718 60.51 220.732 67.213L235.577 97.361C238.181 101.71 238.155 107.142 235.509 111.465L196.238 175.622C193.41 180.241 193.41 186.044 196.238 190.663L235.509 254.82C238.155 259.143 238.181 264.575 235.577 268.924L220.732 293.713C216.718 300.416 207.01 300.416 202.996 293.713L139.512 187.711C136.841 183.25 136.841 177.676 139.512 173.215L202.996 67.213Z" fill="#ECFEFF" fill-opacity="0.93"/>
    <path d="M253 64C215.445 64 185 94.445 185 132C185 169.555 215.445 200 253 200C290.555 200 321 169.555 321 132C321 94.445 290.555 64 253 64ZM253 101C270.121 101 284 114.879 284 132C284 149.121 270.121 163 253 163C235.879 163 222 149.121 222 132C222 114.879 235.879 101 253 101Z" fill="url(#ember)"/>
    <circle cx="253" cy="132" r="11" fill="#0B1017"/>
  </g>
  <g transform="translate(490 94)">
    <text x="0" y="54" fill="#F8FAFC" font-family="Inter, ui-sans-serif, system-ui, -apple-system, BlinkMacSystemFont, Segoe UI, sans-serif" font-size="68" font-weight="850" letter-spacing="0">ivvo</text>
    <text x="4" y="100" fill="#CBD5E1" font-family="Inter, ui-sans-serif, system-ui, -apple-system, BlinkMacSystemFont, Segoe UI, sans-serif" font-size="25" font-weight="550">Idea · Vision · Value · Output</text>
    <text x="4" y="153" fill="#94A3B8" font-family="Inter, ui-sans-serif, system-ui, -apple-system, BlinkMacSystemFont, Segoe UI, sans-serif" font-size="21">Tomasz Tarłowski builds product-grade web apps, MVPs, and premium landing pages.</text>
    <g transform="translate(4 192)">
      <rect width="112" height="36" rx="18" fill="#0F766E"/>
      <text x="24" y="24" fill="#ECFEFF" font-family="Inter, ui-sans-serif, system-ui, -apple-system, BlinkMacSystemFont, Segoe UI, sans-serif" font-size="15" font-weight="750">MVPs</text>
      <rect x="130" width="188" height="36" rx="18" fill="#1F2937" stroke="#334155"/>
      <text x="154" y="24" fill="#E5E7EB" font-family="Inter, ui-sans-serif, system-ui, -apple-system, BlinkMacSystemFont, Segoe UI, sans-serif" font-size="15" font-weight="750">Premium web</text>
      <rect x="336" width="170" height="36" rx="18" fill="#1F2937" stroke="#334155"/>
      <text x="360" y="24" fill="#E5E7EB" font-family="Inter, ui-sans-serif, system-ui, -apple-system, BlinkMacSystemFont, Segoe UI, sans-serif" font-size="15" font-weight="750">AI workflows</text>
    </g>
  </g>
  <text x="1034" y="340" fill="#64748B" font-family="SFMono-Regular, Consolas, Liberation Mono, monospace" font-size="16">github.com/tomasztarlowski</text>
</svg>
