<svg width="1280" height="420" viewBox="0 0 1280 420" fill="none" xmlns="http://www.w3.org/2000/svg" role="img" aria-labelledby="title desc">
  <title id="title">Tomasz Tarłowski — Creative Developer</title>
  <desc id="desc">A dark editorial GitHub profile banner for Tomasz Tarłowski, founder of ivvo.</desc>
  <rect width="1280" height="420" rx="34" fill="#0B1017"/>
  <path d="M0 320C140 246 242 280 378 218C506 160 580 72 748 96C880 115 954 204 1088 168C1160 149 1218 103 1280 58V420H0V320Z" fill="#10231F"/>
  <path d="M0 350C152 292 274 330 430 260C536 212 622 142 760 158C914 176 980 278 1132 244C1191 231 1238 204 1280 176V420H0V350Z" fill="#172033"/>
  <g opacity=".24">
    <path d="M80 64H1200" stroke="#E5E7EB" stroke-width="1"/>
    <path d="M80 112H1200" stroke="#E5E7EB" stroke-width="1"/>
    <path d="M80 160H1200" stroke="#E5E7EB" stroke-width="1"/>
    <path d="M80 208H1200" stroke="#E5E7EB" stroke-width="1"/>
    <path d="M80 256H1200" stroke="#E5E7EB" stroke-width="1"/>
    <path d="M80 304H1200" stroke="#E5E7EB" stroke-width="1"/>
    <path d="M80 352H1200" stroke="#E5E7EB" stroke-width="1"/>
    <path d="M160 40V380" stroke="#E5E7EB" stroke-width="1"/>
    <path d="M320 40V380" stroke="#E5E7EB" stroke-width="1"/>
    <path d="M480 40V380" stroke="#E5E7EB" stroke-width="1"/>
    <path d="M640 40V380" stroke="#E5E7EB" stroke-width="1"/>
    <path d="M800 40V380" stroke="#E5E7EB" stroke-width="1"/>
    <path d="M960 40V380" stroke="#E5E7EB" stroke-width="1"/>
    <path d="M1120 40V380" stroke="#E5E7EB" stroke-width="1"/>
  </g>
  <rect x="84" y="78" width="520" height="54" rx="27" fill="#111827" stroke="#263241"/>
  <circle cx="118" cy="105" r="7" fill="#F97316"/>
  <circle cx="142" cy="105" r="7" fill="#14B8A6"/>
  <circle cx="166" cy="105" r="7" fill="#60A5FA"/>
  <text x="200" y="113" fill="#9CA3AF" font-family="Inter, ui-sans-serif, system-ui, -apple-system, BlinkMacSystemFont, Segoe UI, sans-serif" font-size="22">github.com/tomasztarlowski</text>
  <text x="84" y="208" fill="#F8FAFC" font-family="Inter, ui-sans-serif, system-ui, -apple-system, BlinkMacSystemFont, Segoe UI, sans-serif" font-size="64" font-weight="800">Tomasz Tarłowski</text>
  <text x="88" y="266" fill="#CBD5E1" font-family="Inter, ui-sans-serif, system-ui, -apple-system, BlinkMacSystemFont, Segoe UI, sans-serif" font-size="30" font-weight="500">Creative Developer · Product Builder · Founder of ivvo</text>
  <g transform="translate(88 310)">
    <rect width="156" height="38" rx="19" fill="#0F766E"/>
    <text x="24" y="25" fill="#ECFEFF" font-family="Inter, ui-sans-serif, system-ui, -apple-system, BlinkMacSystemFont, Segoe UI, sans-serif" font-size="16" font-weight="700">MVPs</text>
    <rect x="174" width="214" height="38" rx="19" fill="#1F2937" stroke="#334155"/>
    <text x="198" y="25" fill="#E5E7EB" font-family="Inter, ui-sans-serif, system-ui, -apple-system, BlinkMacSystemFont, Segoe UI, sans-serif" font-size="16" font-weight="700">Premium web apps</text>
    <rect x="406" width="190" height="38" rx="19" fill="#1F2937" stroke="#334155"/>
    <text x="430" y="25" fill="#E5E7EB" font-family="Inter, ui-sans-serif, system-ui, -apple-system, BlinkMacSystemFont, Segoe UI, sans-serif" font-size="16" font-weight="700">AI workflows</text>
  </g>
  <g transform="translate(845 78)">
    <rect width="350" height="250" rx="28" fill="#0F172A" stroke="#334155"/>
    <text x="32" y="56" fill="#94A3B8" font-family="SFMono-Regular, Consolas, Liberation Mono, monospace" font-size="18">~/ivvo/profile</text>
    <text x="32" y="104" fill="#2DD4BF" font-family="SFMono-Regular, Consolas, Liberation Mono, monospace" font-size="22">$ ship idea</text>
    <text x="32" y="146" fill="#F8FAFC" font-family="SFMono-Regular, Consolas, Liberation Mono, monospace" font-size="19">design → code → deploy</text>
    <text x="32" y="188" fill="#CBD5E1" font-family="SFMono-Regular, Consolas, Liberation Mono, monospace" font-size="19">Next.js · TS · Swift · AI</text>
    <rect x="32" y="214" width="210" height="8" rx="4" fill="#14B8A6"/>
    <rect x="32" y="236" width="286" height="8" rx="4" fill="#475569"/>
  </g>
</svg>
